<?xml version="1.0" encoding="UTF-8"?>
<svg version="1.1" xmlns="http://www.w3.org/2000/svg" width="500" height="500">
<path d="M0 0 C165 0 330 0 500 0 C500 165 500 330 500 500 C335 500 170 500 0 500 C0 335 0 170 0 0 Z " fill="#FEFEFE" transform="translate(0,0)"/>
<path d="M0 0 C0.92554688 0.04398926 1.85109375 0.08797852 2.8046875 0.13330078 C46.71682281 2.5241751 85.5466361 20.72161808 117 51 C118.22203125 52.10988281 118.22203125 52.10988281 119.46875 53.2421875 C132.85693455 65.80447755 142.75381866 81.72948889 151 98 C151.48726563 98.95777344 151.97453125 99.91554688 152.4765625 100.90234375 C155.23804138 106.68363341 157.44732901 112.68977111 159.6875 118.6875 C159.98551514 119.48406006 160.28353027 120.28062012 160.59057617 121.10131836 C160.87392822 121.87612549 161.15728027 122.65093262 161.44921875 123.44921875 C161.70018311 124.13330811 161.95114746 124.81739746 162.2097168 125.5222168 C164.20645143 131.7825998 165.32327417 137.35412135 165.2109375 143.9375 C165.2042807 144.66912354 165.1976239 145.40074707 165.19076538 146.15454102 C165.06666404 154.13714912 164.37697458 162.05649439 163.625 170 C163.48481235 171.5435415 163.34550395 173.08716308 163.20703125 174.63085938 C162.99929382 176.94523243 162.79104309 179.25954382 162.57989502 181.5736084 C162.09305625 186.90945457 161.64358921 192.24720152 161.2277832 197.58911133 C161.07573952 199.53210901 160.91800927 201.47466995 160.75463867 203.41674805 C160.31109231 208.72591596 159.93527614 214.03128045 159.65109253 219.35102844 C158.67332819 237.22554915 157.22034656 252.20486215 148 268 C145.48690838 272.52825134 144.21129583 276.80638089 143.3125 281.875 C143.18294922 282.56335938 143.05339844 283.25171875 142.91992188 283.9609375 C142.60525879 285.63914062 142.30148535 287.31937953 142 289 C139.64856824 289.67789024 137.29461376 290.34240747 134.9375 291 C133.95233398 291.28617187 133.95233398 291.28617187 132.94726562 291.578125 C125.83174032 293.54102853 119.96908176 293.27561854 113 291 C113 292.98 113 294.96 113 297 C111.35405757 296.85540319 109.70825269 296.70924064 108.0625 296.5625 C107.05574219 296.48128906 106.04898437 296.40007812 105.01171875 296.31640625 C102 296 102 296 99.58203125 295.46484375 C96.15587047 294.74322759 94.0084754 294.38995817 90.93359375 296.25 C89.47326316 297.45483997 88.03538015 298.68723944 86.6171875 299.94140625 C83.42179821 302.45479454 80.08487926 304.17318631 76.4375 305.9375 C75.80497314 306.24365234 75.17244629 306.54980469 74.52075195 306.86523438 C73.01764622 307.58483927 71.50936793 308.2936244 70 309 C72.75128879 314.7211379 75.80886362 320.04568309 79.25 325.375 C84.18283976 333.09861603 89.02175056 340.87498245 93.8125 348.6875 C99.00493345 357.14837383 104.22806303 365.58843069 109.5 374 C115.39008421 383.39916952 121.21554238 392.83653131 127.01953125 402.2890625 C131.47995947 409.54700202 135.97645067 416.78125353 140.5 424 C146.42297738 433.45317189 152.29117641 442.93881683 158.125 452.44726562 C161.3630711 457.7235297 164.61313431 462.99126819 167.8984375 468.23828125 C168.81085205 469.69874878 168.81085205 469.69874878 169.74169922 471.1887207 C170.88806738 473.02160454 172.03796706 474.85228576 173.19189453 476.68041992 C173.69575684 477.48713135 174.19961914 478.29384277 174.71875 479.125 C175.38293945 480.18074219 175.38293945 480.18074219 176.06054688 481.2578125 C177 483 177 483 177 485 C166.69067635 485.23201542 156.3819765 485.40953776 146.07057095 485.51812172 C141.28202856 485.57024691 136.49527588 485.64090034 131.70776367 485.75439453 C127.0845651 485.86330364 122.46308383 485.92289133 117.83870125 485.94877243 C116.07745383 485.96720678 114.31629735 486.00320973 112.55578423 486.05730057 C98.773026 486.46380571 98.773026 486.46380571 94.4223175 482.87187195 C92.60060134 480.31132343 91.28624597 477.86041428 90 475 C89.05540866 473.42806134 88.09566588 471.86500703 87.11328125 470.31640625 C86.1766118 468.73358692 85.2431062 467.14889175 84.3125 465.5625 C80.38277965 458.93927867 76.38564235 452.37166727 72.25 445.875 C67.49269481 438.39630824 62.82330156 430.86709836 58.1875 423.3125 C52.99478075 414.85179981 47.77193871 406.41157208 42.5 398 C36.60991579 388.60083048 30.78445762 379.16346869 24.98046875 369.7109375 C20.52004085 362.4529985 16.02360049 355.21871404 11.5 348 C5.60998978 338.60078369 -0.21554193 329.16346943 -6.01953125 319.7109375 C-10.47996074 312.45299592 -14.97665556 305.21887631 -19.5 298 C-24.5484391 289.93795871 -29.57786905 281.86457082 -34.57202148 273.76879883 C-35.59164382 272.11655202 -36.61317274 270.46548226 -37.63476562 268.81445312 C-38.26318359 267.79416016 -38.89160156 266.77386719 -39.5390625 265.72265625 C-40.08771973 264.83328369 -40.63637695 263.94391113 -41.20166016 263.02758789 C-43.55484973 259.06588495 -45.77967809 255.03729428 -48 251 C-46.9344841 250.99635437 -45.8689682 250.99270874 -44.77116394 250.98895264 C-34.69385144 250.95189432 -24.61684147 250.89400382 -14.53975964 250.81609726 C-9.35990888 250.77671074 -4.1802259 250.74447908 0.99975586 250.72900391 C6.00556508 250.71377907 11.01091281 250.67923069 16.01651573 250.63169098 C17.91927754 250.61693707 19.82210526 250.60896245 21.72492409 250.60811615 C39.91001242 250.68564068 39.91001242 250.68564068 55.43359375 241.98046875 C62.58317487 232.94097342 64.93173008 223.2726217 64 212 C61.65037775 203.15199392 55.93055412 195.65862183 48.125 191.0078125 C41.91456405 188.06242192 36.5310428 187.69656261 29.77197266 187.68115234 C28.74038214 187.67099909 27.70879162 187.66084583 26.64594078 187.6503849 C23.31865141 187.61983727 19.99144724 187.60261772 16.6640625 187.5859375 C14.60505441 187.56899636 12.54605334 187.55117899 10.48706055 187.5324707 C2.86645422 187.46936419 -4.75428484 187.4232049 -12.375 187.375 C-37.929375 187.189375 -37.929375 187.189375 -64 187 C-64 253.66 -64 320.32 -64 389 C-85.12 389 -106.24 389 -128 389 C-128 351.38 -128 313.76 -128 275 C-134.93 275 -141.86 275 -149 275 C-149.66 273.02 -150.32 271.04 -151 269 C-151.72703125 268.99742187 -152.4540625 268.99484375 -153.203125 268.9921875 C-161.13857376 268.68697793 -170.11768559 266.88231441 -176 261 C-176.10927434 259.4571818 -176.15585622 257.90983609 -176.17578125 256.36328125 C-176.42995474 244.80756857 -177.26978642 234.98422576 -181 224 C-185.61825688 207.64473669 -182.46331427 189.50469703 -180.97363281 172.89160156 C-180.62581476 169.00909473 -180.28861067 165.12577748 -179.953125 161.2421875 C-179.33554983 154.15815695 -178.68291975 147.07802084 -178 140 C-177.91658356 139.12342743 -177.83316711 138.24685486 -177.7472229 137.34371948 C-176.94446891 129.15706287 -175.75934619 121.64464027 -172.4375 114.0625 C-171.91023315 112.81001465 -171.91023315 112.81001465 -171.37231445 111.53222656 C-152.34710276 67.2617803 -116.89593974 30.16218548 -71.80078125 12.12011719 C-66.91382382 10.2715168 -61.97926858 8.58167704 -57 7 C-56.22841553 6.75032471 -55.45683105 6.50064941 -54.66186523 6.2434082 C-36.84453232 0.65645323 -18.57324219 -0.90358052 0 0 Z " fill="#8B3C3C" transform="translate(248,14)"/>
<path d="M0 0 C2.0136703 0.49392766 4.04776677 0.90247255 6.08203125 1.30322266 C25.00238529 5.27102418 43.47511842 14.35199021 59.17578125 25.53369141 C59.75263672 25.93990723 60.32949219 26.34612305 60.92382812 26.76464844 C96.83599703 52.44649476 120.28236117 91.97926396 127.83251953 135.24853516 C128.69360728 140.98095431 129.0026721 146.74319033 129.17578125 152.53369141 C128.01949219 152.05802734 128.01949219 152.05802734 126.83984375 151.57275391 C123.22355793 150.16229639 120.05396435 149.53369141 116.17578125 149.53369141 C116.17578125 148.87369141 116.17578125 148.21369141 116.17578125 147.53369141 C115.18578125 147.53369141 114.19578125 147.53369141 113.17578125 147.53369141 C113.00460322 142.48393944 113.09641232 139.20817826 115.17578125 134.53369141 C114.58676025 134.45328613 113.99773926 134.37288086 113.39086914 134.29003906 C110.6727964 133.91676666 107.95555137 133.53776061 105.23828125 133.15869141 C104.31208984 133.03236328 103.38589844 132.90603516 102.43164062 132.77587891 C96.59889285 131.95724764 90.90878278 130.88609177 85.17578125 129.53369141 C85.03140625 130.72994141 84.88703125 131.92619141 84.73828125 133.15869141 C84.30538782 136.63420721 83.77961869 140.08319175 83.17578125 143.53369141 C80.73522623 141.11032339 78.31333379 138.67996207 75.95703125 136.17431641 C62.11550809 121.66915858 40.41049149 108.23437471 19.76503277 107.39502621 C18.44963418 107.38857366 17.13423559 107.38212111 15.77897644 107.37547302 C14.67613445 107.36806606 14.67613445 107.36806606 13.55101281 107.36050946 C11.09284865 107.34517841 8.63471051 107.33678578 6.17651367 107.32836914 C4.41224947 107.31878716 2.64798756 107.30877689 0.88372803 107.29837036 C-3.90299871 107.27134991 -8.68973528 107.25032485 -13.47649598 107.23036838 C-18.48001027 107.2084912 -23.48349434 107.18111098 -28.48698425 107.15431213 C-37.96057246 107.10440868 -47.43417745 107.05946113 -56.90779847 107.01628977 C-67.69370255 106.96689734 -78.47957632 106.91198664 -89.26545107 106.85661018 C-111.45167872 106.74282617 -133.63793532 106.63597932 -155.82421875 106.53369141 C-155.82421875 107.19369141 -155.82421875 107.85369141 -155.82421875 108.53369141 C-163.08421875 108.53369141 -170.34421875 108.53369141 -177.82421875 108.53369141 C-177.82421875 112.82369141 -177.82421875 117.11369141 -177.82421875 121.53369141 C-178.81421875 121.53369141 -179.80421875 121.53369141 -180.82421875 121.53369141 C-180.82421875 122.19369141 -180.82421875 122.85369141 -180.82421875 123.53369141 C-182.14421875 123.53369141 -183.46421875 123.53369141 -184.82421875 123.53369141 C-184.82421875 122.87369141 -184.82421875 122.21369141 -184.82421875 121.53369141 C-188.78421875 122.52369141 -188.78421875 122.52369141 -192.82421875 123.53369141 C-189.93189992 96.79737835 -171.9875547 71.2358259 -154.82421875 51.53369141 C-153.7607393 50.24283104 -152.69802208 48.95134151 -151.63671875 47.65869141 C-148.37506999 43.87961395 -144.63773754 40.73963263 -140.82421875 37.53369141 C-139.96054688 36.77056641 -139.096875 36.00744141 -138.20703125 35.22119141 C-122.40764132 21.51982344 -103.59175751 11.28302466 -83.82421875 4.53369141 C-83.210625 4.32115723 -82.59703125 4.10862305 -81.96484375 3.88964844 C-55.92485676 -4.97045713 -26.69510843 -6.74767754 0 0 Z " fill="#FDFDFD" transform="translate(274.82421875,30.46630859375)"/>
<path d="M0 0 C0.92554688 0.04398926 1.85109375 0.08797852 2.8046875 0.13330078 C46.71682281 2.5241751 85.5466361 20.72161808 117 51 C118.22203125 52.10988281 118.22203125 52.10988281 119.46875 53.2421875 C132.85693455 65.80447755 142.75381866 81.72948889 151 98 C151.48726563 98.95777344 151.97453125 99.91554688 152.4765625 100.90234375 C155.23804138 106.68363341 157.44732901 112.68977111 159.6875 118.6875 C159.98551514 119.48406006 160.28353027 120.28062012 160.59057617 121.10131836 C160.87392822 121.87612549 161.15728027 122.65093262 161.44921875 123.44921875 C161.70018311 124.13330811 161.95114746 124.81739746 162.2097168 125.5222168 C164.20645143 131.7825998 165.32327417 137.35412135 165.2109375 143.9375 C165.2042807 144.66912354 165.1976239 145.40074707 165.19076538 146.15454102 C165.06666404 154.13714912 164.37697458 162.05649439 163.625 170 C163.48481235 171.5435415 163.34550395 173.08716308 163.20703125 174.63085938 C162.99929382 176.94523243 162.79104309 179.25954382 162.57989502 181.5736084 C162.09305625 186.90945457 161.64358921 192.24720152 161.2277832 197.58911133 C161.07573952 199.53210901 160.91800927 201.47466995 160.75463867 203.41674805 C160.31109231 208.72591596 159.93527614 214.03128045 159.65109253 219.35102844 C158.67332819 237.22554915 157.22034656 252.20486215 148 268 C145.48690838 272.52825134 144.21129583 276.80638089 143.3125 281.875 C143.18294922 282.56335938 143.05339844 283.25171875 142.91992188 283.9609375 C142.60525879 285.63914062 142.30148535 287.31937953 142 289 C139.64856824 289.67789024 137.29461376 290.34240747 134.9375 291 C133.95233398 291.28617187 133.95233398 291.28617187 132.94726562 291.578125 C125.83174032 293.54102853 119.96908176 293.27561854 113 291 C113 292.98 113 294.96 113 297 C111.35405757 296.85540319 109.70825269 296.70924064 108.0625 296.5625 C107.05574219 296.48128906 106.04898437 296.40007812 105.01171875 296.31640625 C102 296 102 296 99.58203125 295.46484375 C96.15587047 294.74322759 94.0084754 294.38995817 90.93359375 296.25 C89.47326316 297.45483997 88.03538015 298.68723944 86.6171875 299.94140625 C83.42179821 302.45479454 80.08487926 304.17318631 76.4375 305.9375 C75.80497314 306.24365234 75.17244629 306.54980469 74.52075195 306.86523438 C73.01764622 307.58483927 71.50936793 308.2936244 70 309 C72.75128879 314.7211379 75.80886362 320.04568309 79.25 325.375 C84.18283976 333.09861603 89.02175056 340.87498245 93.8125 348.6875 C99.00493345 357.14837383 104.22806303 365.58843069 109.5 374 C115.39008421 383.39916952 121.21554238 392.83653131 127.01953125 402.2890625 C131.47995947 409.54700202 135.97645067 416.78125353 140.5 424 C146.42297738 433.45317189 152.29117641 442.93881683 158.125 452.44726562 C161.3630711 457.7235297 164.61313431 462.99126819 167.8984375 468.23828125 C168.81085205 469.69874878 168.81085205 469.69874878 169.74169922 471.1887207 C170.88806738 473.02160454 172.03796706 474.85228576 173.19189453 476.68041992 C173.69575684 477.48713135 174.19961914 478.29384277 174.71875 479.125 C175.38293945 480.18074219 175.38293945 480.18074219 176.06054688 481.2578125 C177 483 177 483 177 485 C142.77072862 487.96445653 142.77072862 487.96445653 134.18554688 483.55419922 C129.99410147 479.53582401 128.17698922 474.35910886 126.22509766 468.99072266 C123.92254404 463.36970196 120.45452547 458.41170867 117.1875 453.3125 C115.81204456 451.08211101 114.44095674 448.84902273 113.07421875 446.61328125 C109.24689294 440.38944809 105.38018502 434.19097789 101.5 428 C95.60991579 418.60083048 89.78445762 409.16346869 83.98046875 399.7109375 C79.52004085 392.4529985 75.02360049 385.21871404 70.5 378 C64.61873235 368.614735 58.80066579 359.19214303 53.00683594 349.75268555 C47.67795563 341.0792076 42.29212534 332.4423437 36.87109375 323.82617188 C33.8038755 318.93970555 30.81439266 314.03664826 28 309 C29.66675781 308.1646875 29.66675781 308.1646875 31.3671875 307.3125 C39.98698104 302.91969263 47.7193422 298.44934881 55 292 C55.66902344 291.47277344 56.33804688 290.94554687 57.02734375 290.40234375 C74.40784927 276.3946888 84.98183878 252.69073896 88 231 C90.50897658 202.62946336 82.55345946 177.80389879 65.0703125 155.54296875 C50.52508544 138.39829348 29.83435269 127.97281861 8 124 C8 123.67 8 123.34 8 123 C13.72504776 122.89997901 19.44956996 122.82799575 25.17529297 122.78027344 C27.11678952 122.76034747 29.05822758 122.73319651 30.99951172 122.69824219 C42.7335269 122.49248844 52.89917111 122.79311413 64 127 C65.08434326 127.40927734 66.16868652 127.81855469 67.28588867 128.24023438 C83.24159406 134.4802107 99.31700257 144.47550386 109 159 C109.99 154.71 110.98 150.42 112 146 C122.11708349 147.02885595 132.17842288 148.30388079 142 151 C141.855625 151.66 141.71125 152.32 141.5625 153 C140.87700084 156.65599551 140.43824485 160.30622195 140 164 C140.99 164 141.98 164 143 164 C143 164.66 143 165.32 143 166 C144.03125 165.7525 145.0625 165.505 146.125 165.25 C150.86737249 164.94404048 152.26120979 166.26739979 156 169 C150.02849928 128.86997907 138.17619838 93.11573744 109.42431641 63.47558594 C108.11327953 62.11735712 106.82686442 60.73547548 105.54296875 59.3515625 C83.5096772 36.18554784 52.04665781 21.80359112 21 16 C20.06849121 15.81671143 19.13698242 15.63342285 18.17724609 15.44458008 C10.78831289 14.0816141 3.63146838 13.64907004 -3.875 13.6875 C-5.63275757 13.69595947 -5.63275757 13.69595947 -7.42602539 13.70458984 C-52.86463804 14.32682561 -92.24957277 33.19700584 -124 65 C-124.55042969 65.515625 -125.10085937 66.03125 -125.66796875 66.5625 C-143.40799233 83.34483593 -156.27909348 107.75285422 -163.0625 130.9375 C-164.61531575 136.16981394 -166.0138531 139.89163345 -170.6875 143.0625 C-173.10591619 144.30303473 -175.41574139 145.13858046 -178 146 C-177.18067803 111.79330775 -158.09864542 79.56374592 -134.48242188 55.51757812 C-133.01427332 54.01461182 -131.57620171 52.48716376 -130.140625 50.953125 C-110.37817939 30.13959265 -84.18073226 15.63402714 -57 7 C-56.22841553 6.75032471 -55.45683105 6.50064941 -54.66186523 6.2434082 C-36.84453232 0.65645323 -18.57324219 -0.90358052 0 0 Z " fill="#430707" transform="translate(248,14)"/>
<path d="M0 0 C0.92554688 0.04398926 1.85109375 0.08797852 2.8046875 0.13330078 C46.71682281 2.5241751 85.5466361 20.72161808 117 51 C118.22203125 52.10988281 118.22203125 52.10988281 119.46875 53.2421875 C132.85693455 65.80447755 142.75381866 81.72948889 151 98 C151.48726563 98.95777344 151.97453125 99.91554688 152.4765625 100.90234375 C155.23804138 106.68363341 157.44732901 112.68977111 159.6875 118.6875 C159.98551514 119.48406006 160.28353027 120.28062012 160.59057617 121.10131836 C160.87392822 121.87612549 161.15728027 122.65093262 161.44921875 123.44921875 C161.70018311 124.13330811 161.95114746 124.81739746 162.2097168 125.5222168 C164.20645143 131.7825998 165.32327417 137.35412135 165.2109375 143.9375 C165.2042807 144.66912354 165.1976239 145.40074707 165.19076538 146.15454102 C165.06666404 154.13714912 164.37697458 162.05649439 163.625 170 C163.48481235 171.5435415 163.34550395 173.08716308 163.20703125 174.63085938 C162.99929382 176.94523243 162.79104309 179.25954382 162.57989502 181.5736084 C162.09305625 186.90945457 161.64358921 192.24720152 161.2277832 197.58911133 C161.07573952 199.53210901 160.91800927 201.47466995 160.75463867 203.41674805 C160.31109231 208.72591596 159.93527614 214.03128045 159.65109253 219.35102844 C158.67332819 237.22554915 157.22034656 252.20486215 148 268 C145.48690838 272.52825134 144.21129583 276.80638089 143.3125 281.875 C143.18294922 282.56335938 143.05339844 283.25171875 142.91992188 283.9609375 C142.60525879 285.63914062 142.30148535 287.31937953 142 289 C139.64856824 289.67789024 137.29461376 290.34240747 134.9375 291 C133.95233398 291.28617187 133.95233398 291.28617187 132.94726562 291.578125 C126.21657433 293.43486743 120.60952356 293.57932627 114 291 C114.55826798 284.26248282 115.51774771 277.72808367 116.88598633 271.11010742 C117.07477859 270.17677582 117.26357086 269.24344421 117.45808411 268.28182983 C118.07814582 265.22209059 118.70509234 262.16380555 119.33203125 259.10546875 C119.76989108 256.95055965 120.20727576 254.79555395 120.64421082 252.64045715 C121.79413021 246.97435639 122.94971735 241.30942723 124.10675049 235.64477539 C125.94887402 226.62071196 127.7818558 217.59478615 129.61578941 208.56905556 C130.25002939 205.45133367 130.88636862 202.33404682 131.52314758 199.21684265 C134.11703796 186.49644095 136.60321864 173.75900972 139 161 C139.33 161.99 139.66 162.98 140 164 C140.99 164 141.98 164 143 164 C143 164.66 143 165.32 143 166 C144.03125 165.7525 145.0625 165.505 146.125 165.25 C150.86737249 164.94404048 152.26120979 166.26739979 156 169 C150.02849928 128.86997907 138.17619838 93.11573744 109.42431641 63.47558594 C108.11327953 62.11735712 106.82686442 60.73547548 105.54296875 59.3515625 C83.5096772 36.18554784 52.04665781 21.80359112 21 16 C20.06849121 15.81671143 19.13698242 15.63342285 18.17724609 15.44458008 C10.78831289 14.0816141 3.63146838 13.64907004 -3.875 13.6875 C-5.63275757 13.69595947 -5.63275757 13.69595947 -7.42602539 13.70458984 C-52.86463804 14.32682561 -92.24957277 33.19700584 -124 65 C-124.55042969 65.515625 -125.10085937 66.03125 -125.66796875 66.5625 C-143.40799233 83.34483593 -156.27909348 107.75285422 -163.0625 130.9375 C-164.61531575 136.16981394 -166.0138531 139.89163345 -170.6875 143.0625 C-173.10591619 144.30303473 -175.41574139 145.13858046 -178 146 C-177.18067803 111.79330775 -158.09864542 79.56374592 -134.48242188 55.51757812 C-133.01427332 54.01461182 -131.57620171 52.48716376 -130.140625 50.953125 C-110.37817939 30.13959265 -84.18073226 15.63402714 -57 7 C-56.22841553 6.75032471 -55.45683105 6.50064941 -54.66186523 6.2434082 C-36.84453232 0.65645323 -18.57324219 -0.90358052 0 0 Z " fill="#060606" transform="translate(248,14)"/>
<path d="M0 0 C10.56 0 21.12 0 32 0 C32 66.33 32 132.66 32 201 C21.44 201 10.88 201 0 201 C0 134.67 0 68.34 0 0 Z " fill="#430707" transform="translate(152,201)"/>
<path d="M0 0 C1.42836074 0.15646563 2.85665119 0.31357307 4.28491211 0.47094727 C5.47799232 0.60207664 5.47799232 0.60207664 6.69517517 0.7358551 C14.58023914 1.63952439 22.34454705 2.89850311 30 5 C26.00602214 24.96988932 22.01204427 44.93977865 18.01806641 64.90966797 C17.79609463 66.0195319 17.57412285 67.12939583 17.34542465 68.272892 C16.89958338 70.5020882 16.4537343 72.73128285 16.00787735 74.96047592 C14.9098328 80.45052229 13.81191987 85.94059492 12.71429443 91.4307251 C10.92662666 100.37172822 9.13878598 109.31269173 7.3443737 118.25234413 C6.68508141 121.53690826 6.02640846 124.82159645 5.36775589 128.10628891 C4.92876666 130.29391201 4.48874116 132.48132491 4.04867554 134.66873169 C3.66034042 136.60557327 3.66034042 136.60557327 3.26416016 138.58154297 C3.04216949 139.68625946 2.82017883 140.79097595 2.59146118 141.9291687 C2.01042162 144.94589159 1.4912417 147.96747723 1 151 C-9.2215298 150.5406054 -19.04878609 148.21710983 -29 146 C-27.02432519 129.51638483 -23.31480526 113.30738081 -19.93649292 97.06880188 C-16.2222031 79.19920125 -12.64909973 61.30258697 -9.09912109 43.3996582 C-6.22149536 28.89638824 -3.31373282 14.41074387 0 0 Z " fill="#020101" transform="translate(360,160)"/>
<path d="M0 0 C9.57 0 19.14 0 29 0 C29.94728973 19.6701927 30.30345595 39.31763345 30.53242874 59.00597382 C30.56278273 61.58653653 30.59453213 64.16707866 30.62667847 66.74761963 C30.96682194 94.16569097 31.14143163 121.57967085 31 149 C26.74585377 149.02465622 22.49174502 149.04283899 18.23754883 149.05493164 C16.78929927 149.05997101 15.34105483 149.06680253 13.89282227 149.07543945 C11.81525412 149.08752247 9.73775303 149.09323211 7.66015625 149.09765625 C6.40855713 149.10289307 5.15695801 149.10812988 3.86743164 149.11352539 C1 149 1 149 0 148 C-0.09658904 146.08905061 -0.12187192 144.17448134 -0.12025452 142.26109314 C-0.12162918 141.01442368 -0.12300385 139.76775421 -0.12442017 138.48330688 C-0.12088056 137.08905006 -0.11724574 135.69479347 -0.11352539 134.30053711 C-0.11324353 132.84228009 -0.11340124 131.38402293 -0.1139679 129.92576599 C-0.1142559 125.95486515 -0.10835877 121.98399425 -0.10139394 118.01310039 C-0.09516081 113.86774899 -0.09455663 109.72239698 -0.09336853 105.57704163 C-0.09025509 97.72180673 -0.08204154 89.86658568 -0.07201904 82.01135689 C-0.06085829 73.07075601 -0.05534755 64.13015448 -0.05032361 55.18954837 C-0.03985893 36.79302279 -0.0215133 18.39651621 0 0 Z " fill="#020000" transform="translate(98,140)"/>
<path d="M0 0 C0 0.66 0 1.32 0 2 C1.32 2 2.64 2 4 2 C4 1.34 4 0.68 4 0 C4.99 0 5.98 0 7 0 C8.16031696 14.4007436 8.32315503 28.82084703 8.53242874 43.26057053 C8.56272535 45.3278766 8.59451141 47.39515511 8.62667847 49.46243286 C9.04153429 76.30865085 9.115722 103.15071566 9 130 C4.77293447 132.11353276 -0.51451683 130.86199734 -5 130 C-15.00380228 125.99619772 -15.00380228 125.99619772 -18 123 C-18.10927434 121.4571818 -18.15585622 119.90983609 -18.17578125 118.36328125 C-18.42995474 106.80756857 -19.26978642 96.98422576 -23 86 C-27.32938173 70.66776967 -24.70493374 53.7008159 -23.40087891 38.07763672 C-23.12212409 34.71531088 -22.859401 31.35196939 -22.59765625 27.98828125 C-22.42283007 25.84106786 -22.24708316 23.69392919 -22.0703125 21.546875 C-21.99313995 20.54589783 -21.91596741 19.54492065 -21.8364563 18.51361084 C-21.75652435 17.58453918 -21.67659241 16.65546753 -21.59423828 15.69824219 C-21.52761993 14.88490417 -21.46100159 14.07156616 -21.3923645 13.23358154 C-20.96498204 10.80065613 -20.29289967 9.10048844 -19 7 C-16.57421875 5.33203125 -16.57421875 5.33203125 -13.6875 3.8125 C-12.74261719 3.30332031 -11.79773438 2.79414063 -10.82421875 2.26953125 C-7.11731659 0.60321977 -4.04862193 0 0 0 Z " fill="#F22A2A" transform="translate(90,152)"/>
<path d="M0 0 C0.33 0.99 0.66 1.98 1 3 C1.99 3 2.98 3 4 3 C4 3.66 4 4.32 4 5 C5.53333984 4.6596875 5.53333984 4.6596875 7.09765625 4.3125 C12.93187759 3.84529509 15.94867098 5.91265297 20.56640625 9.28515625 C23.51757852 12.57739498 23.83024668 14.05664747 23.875 18.4375 C23.70270692 20.50298996 23.5246484 22.56890304 23.27490234 24.62646484 C22.97881486 27.18291471 22.78787299 29.73322875 22.61328125 32.30078125 C22.32638694 36.44419051 21.98427222 40.57848788 21.609375 44.71484375 C21.20392876 49.28886383 20.88295779 53.85708243 20.63749695 58.44166565 C19.67082138 76.2863732 18.20465361 91.23174534 9 107 C6.48690838 111.52825134 5.21129583 115.80638089 4.3125 120.875 C4.18294922 121.56335938 4.05339844 122.25171875 3.91992188 122.9609375 C3.60525879 124.63914062 3.30148535 126.31937953 3 128 C0.64856824 128.67789024 -1.70538624 129.34240747 -4.0625 130 C-4.71927734 130.19078125 -5.37605469 130.3815625 -6.05273438 130.578125 C-12.78342567 132.43486743 -18.39047644 132.57932627 -25 130 C-24.44173202 123.26248282 -23.48225229 116.72808367 -22.11401367 110.11010742 C-21.92522141 109.17677582 -21.73642914 108.24344421 -21.54191589 107.28182983 C-20.92185418 104.22209059 -20.29490766 101.16380555 -19.66796875 98.10546875 C-19.23010892 95.95055965 -18.79272424 93.79555395 -18.35578918 91.64045715 C-17.20586979 85.97435639 -16.05028265 80.30942723 -14.89324951 74.64477539 C-13.05112598 65.62071196 -11.2181442 56.59478615 -9.38421059 47.56905556 C-8.74997061 44.45133367 -8.11363138 41.33404682 -7.47685242 38.21684265 C-4.88296204 25.49644095 -2.39678136 12.75900972 0 0 Z " fill="#F32A2A" transform="translate(387,175)"/>
<path d="M0 0 C0.33 0.99 0.66 1.98 1 3 C1.99 3 2.98 3 4 3 C4 3.66 4 4.32 4 5 C4.99 5 5.98 5 7 5 C5.67751133 14.26566578 3.9661741 23.40054014 2.0234375 32.5546875 C1.73362883 33.93327538 1.44415784 35.31193429 1.15499878 36.69065857 C0.38949522 40.33683018 -0.38001225 43.98214511 -1.15037537 47.62729263 C-2.42404927 53.6591039 -3.69012249 59.69251944 -4.95753479 65.72564888 C-5.42822069 67.96567559 -5.89934939 70.20560889 -6.3704834 72.44554138 C-8.15076663 80.9154702 -9.90999054 89.38925011 -11.6328125 97.87109375 C-11.82062286 98.79484802 -12.00843323 99.71860229 -12.20193481 100.67034912 C-13.03655828 104.78097899 -13.86628204 108.89253111 -14.68994141 113.00537109 C-14.97548843 114.41636088 -15.26112624 115.8273323 -15.546875 117.23828125 C-15.78245117 118.41430908 -16.01802734 119.59033691 -16.26074219 120.80200195 C-16.98912195 123.952942 -17.92473363 126.95177577 -19 130 C-20.98 130 -22.96 130 -25 130 C-24.44173202 123.26248282 -23.48225229 116.72808367 -22.11401367 110.11010742 C-21.92522141 109.17677582 -21.73642914 108.24344421 -21.54191589 107.28182983 C-20.92185418 104.22209059 -20.29490766 101.16380555 -19.66796875 98.10546875 C-19.23010892 95.95055965 -18.79272424 93.79555395 -18.35578918 91.64045715 C-17.20586979 85.97435639 -16.05028265 80.30942723 -14.89324951 74.64477539 C-13.05112598 65.62071196 -11.2181442 56.59478615 -9.38421059 47.56905556 C-8.74997061 44.45133367 -8.11363138 41.33404682 -7.47685242 38.21684265 C-4.88296204 25.49644095 -2.39678136 12.75900972 0 0 Z " fill="#E22626" transform="translate(387,175)"/>
<path d="M0 0 C0.99 0 1.98 0 3 0 C4.16031696 14.4007436 4.32315503 28.82084703 4.53242874 43.26057053 C4.56272535 45.3278766 4.59451141 47.39515511 4.62667847 49.46243286 C5.04153429 76.30865085 5.115722 103.15071566 5 130 C4.01 130 3.02 130 2 130 C-0.05453092 127.94546908 0.8144049 123.59345898 0.79467773 120.76538086 C0.78477814 119.89980057 0.77487854 119.03422028 0.76467896 118.14241028 C0.73285352 115.24991652 0.70816891 112.35740753 0.68359375 109.46484375 C0.66298695 107.43542595 0.6419896 105.40601209 0.62062073 103.37660217 C0.57651069 99.09150481 0.53565301 94.80639307 0.49731445 90.52124023 C0.4490272 85.12793277 0.39528122 79.7346999 0.33934593 74.3414669 C0.09350894 50.560541 -0.07640977 26.78224851 0 3 C-1.32 2.67 -2.64 2.34 -4 2 C-2.68 2 -1.36 2 0 2 C0 1.34 0 0.68 0 0 Z " fill="#DB2626" transform="translate(94,152)"/>
<path d="M0 0 C1.32 0 2.64 0 4 0 C1.54913575 14.95613653 -1.6150738 29.75945687 -4.75527573 44.58312988 C-5.92472288 50.10771364 -7.0881862 55.63356332 -8.25205421 61.15932465 C-8.54207755 62.53618312 -8.8322067 63.91301931 -9.12244225 65.28983307 C-10.96425598 74.02862531 -12.78413926 82.77149035 -14.5625 91.5234375 C-14.74935867 92.44218658 -14.93621735 93.36093567 -15.1287384 94.30752563 C-15.97107984 98.45475451 -16.80842504 102.6029217 -17.6394043 106.75244141 C-17.93008584 108.1891458 -18.22085145 109.6258332 -18.51171875 111.0625 C-18.87463013 112.87427734 -18.87463013 112.87427734 -19.24487305 114.72265625 C-19.97746955 117.90221507 -20.9133953 120.92533282 -22 124 C-22.66 124 -23.32 124 -24 124 C-24.20195794 118.38958961 -23.45742372 113.36227416 -22.3125 107.87890625 C-22.13447342 106.99867798 -21.95644684 106.11844971 -21.77302551 105.21154785 C-21.18824756 102.32722478 -20.59409762 99.44491648 -20 96.5625 C-19.58873346 94.54172831 -19.17817977 92.52081143 -18.76831055 90.49975586 C-17.9270622 86.35470702 -17.08263802 82.21032473 -16.23583984 78.06640625 C-14.56892148 69.89852248 -12.93797402 61.72352221 -11.30838013 53.54812622 C-10.81533336 51.07670239 -10.32089789 48.60556077 -9.82592773 46.13452148 C-8.42372336 39.13397271 -7.02409802 32.13297574 -5.64118958 25.12858582 C-5.08057727 22.2895548 -4.51804864 19.45090496 -3.95541382 16.61227417 C-3.57276236 14.67690481 -3.1931988 12.74092572 -2.8137207 10.80493164 C-2.58773193 9.66531982 -2.36174316 8.52570801 -2.12890625 7.3515625 C-1.93369385 6.35979004 -1.73848145 5.36801758 -1.53735352 4.34619141 C-1 2 -1 2 0 0 Z " fill="#150303" transform="translate(390,181)"/>
<path d="M0 0 C1.32 0 2.64 0 4 0 C5.08989672 25.9245606 5.12364465 51.82842014 5.06866455 77.77209473 C5.05823955 83.23087158 5.05382685 88.68965345 5.04882812 94.1484375 C5.03825981 104.76563765 5.02130587 115.38281632 5 126 C4.34 126 3.68 126 3 126 C1.56704534 95.25092055 0.74995491 64.52787782 0.375 33.75 C0.36475422 32.90963448 0.35450844 32.06926895 0.34395218 31.20343781 C0.21816437 20.80240457 0.1036385 10.4012783 0 0 Z " fill="#130303" transform="translate(90,155)"/>
<path d="M0 0 C0.33 0 0.66 0 1 0 C2.26230635 15.31133489 2.1190573 30.63029591 2.06866455 45.98101807 C2.05827825 49.48799019 2.05383475 52.99496992 2.04882812 56.50195312 C2.03822947 63.33465356 2.02125226 70.16732458 2 77 C-0.87919226 74.12080774 -1.25353786 70.72879923 -2.125 66.875 C-2.30675781 66.15957031 -2.48851563 65.44414062 -2.67578125 64.70703125 C-5.60876164 51.85043299 -3.96850167 38.17367659 -2.77319336 25.16894531 C-2.55950529 22.84239482 -2.35611677 20.51510749 -2.15429688 18.1875 C-2.02141568 16.68484422 -1.88797338 15.18223793 -1.75390625 13.6796875 C-1.66321617 12.65305496 -1.66321617 12.65305496 -1.57069397 11.60568237 C-1.20957775 7.7009711 -0.69358335 3.85938938 0 0 Z " fill="#100B0B" transform="translate(69,171)"/>
<path d="M0 0 C0.33 0 0.66 0 1 0 C1.15519731 4.33690265 1.10088432 8.66286715 1 13 C0.98308105 13.9065332 0.96616211 14.81306641 0.94873047 15.74707031 C0.55200845 30.97221363 -1.44396609 44.99417407 -10 58 C-10.99 58.495 -10.99 58.495 -12 59 C-11.32883533 51.40694431 -9.83716986 44.12344652 -8.1875 36.6875 C-7.64464006 34.20468769 -7.10298206 31.72161228 -6.5625 29.23828125 C-6.29695313 28.01834473 -6.03140625 26.7984082 -5.7578125 25.54150391 C-4.50019442 19.66424623 -3.33896625 13.76836984 -2.20581055 7.8659668 C-1.10364341 2.20728682 -1.10364341 2.20728682 0 0 Z " fill="#140A0A" transform="translate(406,224)"/>
<path d="M0 0 C0.33 0.99 0.66 1.98 1 3 C1.99 3 2.98 3 4 3 C4 3.66 4 4.32 4 5 C4.99 5.33 5.98 5.66 7 6 C5.68 6 4.36 6 3 6 C2.78851318 7.20160767 2.78851318 7.20160767 2.57275391 8.42749023 C1.92555624 12.09785899 1.27530161 15.76767997 0.625 19.4375 C0.40328125 20.69755859 0.1815625 21.95761719 -0.046875 23.25585938 C-1.22235151 29.87655796 -2.47491798 36.45069918 -4 43 C-4.66 42.34 -5.32 41.68 -6 41 C-6.66 41.99 -7.32 42.98 -8 44 C-7.40473468 38.07033989 -6.57153756 32.29955709 -5.37109375 26.46484375 C-5.21713638 25.70071671 -5.06317902 24.93658966 -4.90455627 24.14930725 C-4.41919311 21.7446143 -3.92845074 19.34105768 -3.4375 16.9375 C-3.10445888 15.29239031 -2.77177347 13.64720857 -2.43945312 12.00195312 C-1.63040473 8.00045878 -0.81653525 3.99997301 0 0 Z " fill="#D72424" transform="translate(387,175)"/>
<path d="M0 0 C0.66 0 1.32 0 2 0 C2.08728882 3.24983 2.14048658 6.4993575 2.1875 9.75 C2.22520508 11.13058594 2.22520508 11.13058594 2.26367188 12.5390625 C2.27333984 13.42851562 2.28300781 14.31796875 2.29296875 15.234375 C2.3086792 16.05131836 2.32438965 16.86826172 2.34057617 17.70996094 C1.92379459 20.51240627 0.83804852 21.88847021 -1 24 C-1.02887236 20.18751574 -1.04675492 16.3750593 -1.0625 12.5625 C-1.07087891 11.47388672 -1.07925781 10.38527344 -1.08789062 9.26367188 C-1.09111328 8.22919922 -1.09433594 7.19472656 -1.09765625 6.12890625 C-1.10289307 5.17056885 -1.10812988 4.21223145 -1.11352539 3.22485352 C-1 1 -1 1 0 0 Z " fill="#F32828" transform="translate(96,192)"/>
<path d="M0 0 C0.66 0.33 1.32 0.66 2 1 C-4.93 7.93 -11.86 14.86 -19 22 C-19.66 21.67 -20.32 21.34 -21 21 C-14 14 -7 7 0 0 Z " fill="#DFDFDF" transform="translate(137,65)"/>
<path d="M0 0 C0.33 0.99 0.66 1.98 1 3 C1.99 3 2.98 3 4 3 C4 3.66 4 4.32 4 5 C4.99 5.33 5.98 5.66 7 6 C5.68 6 4.36 6 3 6 C2.67 8.31 2.34 10.62 2 13 C1.01 13.33 0.02 13.66 -1 14 C-1.08333357 9.1666528 -0.95261487 4.76307437 0 0 Z " fill="#DB3C3C" transform="translate(387,175)"/>
<path d="M0 0 C0.33 0.99 0.66 1.98 1 3 C1.66 3 2.32 3 3 3 C2.67 5.97 2.34 8.94 2 12 C1.01 11.34 0.02 10.68 -1 10 C-0.67 6.7 -0.34 3.4 0 0 Z " fill="#250606" transform="translate(375,253)"/>
<path d="M0 0 C0.33 0 0.66 0 1 0 C0.67 2.97 0.34 5.94 0 9 C-0.66 9 -1.32 9 -2 9 C-2.125 5.625 -2.125 5.625 -2 2 C-1.34 1.34 -0.68 0.68 0 0 Z " fill="#0C0202" transform="translate(368,296)"/>
</svg>
